#!OML:ASF F:\VICON\USERDATA\Patient Classification 1\PLAYGROUND\JustinFriday\JustinFriday.ASF
:FULLY-SPECIFIED
:DEGREES
3283
root 37.874 17.7472 2.57068 -175.598 7.77371 -179.23
lowerback 13.7923 0.0363309 -4.45664
upperback 3.81248 -0.086707 1.46983
thorax -3.67958 0.148448 4.07102
lowerneck -6.38065 6.77322 0.0553666
upperneck 13.4548 9.99507 -2.79202
head 5.24846 4.85409 -0.214897
rclavicle -2.54673e-014 3.90435e-015
rhumerus -31.002 -7.61498 -76.6874
rradius 41.0576
rwrist -7.78794
rhand -17.1433 -17.7419
rfingers 7.12502
rthumb 9.0971 -47.5257
lclavicle -2.54673e-014 3.90435e-015
lhumerus -11.4109 26.1317 62.5729
lradius 59.7786
lwrist -19.9177
lhand -33.1193 -2.90399
lfingers 7.12502
lthumb -6.32934 26.9814
rfemur -36.2405 6.78922 10.1491
rtibia 22.7349
rfoot 1.4345 4.43193
rtoes -9.40879
lfemur 12.5226 -13.5389 -24.2578
ltibia 16.033
lfoot -5.7079 -25.4035
ltoes 25.5403
3284
root 37.9588 17.7463 2.43368 -175.308 7.00491 -179.056
lowerback 14.0553 -0.0837149 -4.26643
upperback 3.67492 -0.236435 1.50087
thorax -3.95417 0.0806086 4.02414
lowerneck -6.39445 6.88798 0.165034
upperneck 13.417 10.1729 -3.01188
head 5.25927 4.93312 -0.286399
rclavicle -1.96424e-014 1.65612e-014
rhumerus -31.1896 -7.5892 -76.7245
rradius 41.2335
rwrist -7.68785
rhand -17.4045 -18.5121
rfingers 7.12502
rthumb 8.84501 -48.3067
lclavicle -1.96424e-014 1.65612e-014
lhumerus -10.9006 26.6772 61.7722
lradius 58.7351
lwrist -20.4088
lhand -33.0917 -2.83032
lfingers 7.12502
lthumb -6.30275 27.0559
rfemur -36.1986 6.7659 10.3922
rtibia 22.89
rfoot 3.34562 3.8933
rtoes -8.73275
lfemur 11.9796 -14.1148 -23.7928
ltibia 17.277
lfoot -4.81593 -25.3974
ltoes 25.1322
3285
root 38.0384 17.7585 2.30377 -174.978 6.4091 -178.552
lowerback 14.3409 -0.187972 -3.79583
upperback 3.70559 -0.29733 1.59295
thorax -4.07528 0.0565742 3.8667
lowerneck -6.95225 6.98255 0.114724
upperneck 13.4153 10.3019 -3.08859
head 5.35705 4.97165 -0.270582
rclavicle 1.09207e-014 -3.926e-015
rhumerus -31.023 -7.56894 -76.8549
rradius 41.5567
rwrist -7.82086
rhand -17.1571 -18.9994
rfingers 7.12502
rthumb 9.08374 -48.7838
lclavicle 1.09207e-014 -3.926e-015
lhumerus -10.0092 27.317 60.9932
lradius 57.3982
lwrist -20.828
lhand -32.908 -3.11321
lfingers 7.12502
lthumb -6.12544 26.7782
rfemur -36.1907 6.6704 11.0925
rtibia 23.0923
rfoot 5.12392 3.14665
rtoes -6.58565
lfemur 11.0946 -14.4367 -22.9529
ltibia 18.9777
lfoot -3.81663 -25.6259
ltoes 24.1874
3286
root 38.1098 17.774 2.16778 -174.75 5.97857 -178.04
lowerback 14.5276 -0.260756 -3.27657
upperback 3.80895 -0.29672 1.67504
thorax -4.07241 0.0612565 3.65858
lowerneck -7.3396 7.0973 -0.0525351
upperneck 13.2343 10.4357 -3.03496
head 5.35697 5.01993 -0.208301
rclavicle 8.69683e-016 1.68967e-015
rhumerus -30.6607 -7.24423 -77.0652
rradius 41.5565
rwrist -8.3807
rhand -17.6102 -17.8299
rfingers 7.12502
rthumb 8.64653 -47.6329
lclavicle 8.69683e-016 1.68967e-015
lhumerus -9.18347 27.9795 60.2266
lradius 55.9081
lwrist -21.3412
lhand -33.2369 -3.77863
lfingers 7.12502
lthumb -6.44292 26.1034
rfemur -36.0421 5.97415 12.1489
rtibia 23.3546
rfoot 5.9146 3.31545
rtoes -6.67254
lfemur 10.1172 -14.5894 -22.2055
ltibia 21.0186
lfoot -3.21354 -25.7663
ltoes 22.7956
3287
root 38.1818 17.7966 2.02879 -174.516 5.53465 -177.814
lowerback 14.6442 -0.280987 -3.05114
upperback 3.73463 -0.295377 1.70065
thorax -4.21667 0.0634 3.559
lowerneck -7.0975 7.21857 0.0853472
upperneck 13.0001 10.606 -3.28732
head 5.26744 5.10163 -0.30929
rclavicle 9.69075e-015 -1.14301e-014
rhumerus -30.5351 -6.78315 -77.182
rradius 41.2315
rwrist -8.47856
rhand -18.1426 -16.2697
rfingers 7.12502
rthumb 8.13268 -46.0932
lclavicle 9.69075e-015 -1.14301e-014
lhumerus -8.33349 28.6426 59.6223
lradius 54.1935
lwrist -21.8325
lhand -33.3993 -3.93119
lfingers 7.12502
lthumb -6.59967 25.946
rfemur -35.9904 5.1498 12.9102
rtibia 23.7902
rfoot 5.52801 3.87835
rtoes -6.82828
lfemur 8.93165 -14.7355 -21.7336
ltibia 23.2834
lfoot -2.13847 -25.7571
ltoes 18.7927
3288
root 38.2576 17.8209 1.90402 -174.166 5.01972 -177.207
lowerback 14.8685 -0.283419 -2.48191
upperback 3.59081 -0.216015 1.83043
thorax -4.50184 0.103854 3.36154
lowerneck -6.9431 7.2568 0.223591
upperneck 12.9265 10.6797 -3.52522
head 5.24068 5.13558 -0.404917
rclavicle -4.22417e-015 -2.08724e-015
rhumerus -30.5773 -6.40367 -77.2703
rradius 41.2213
rwrist -8.60108
rhand -18.6041 -16.2649
rfingers 7.12502
rthumb 7.68725 -46.1052
lclavicle -4.22417e-015 -2.08724e-015
lhumerus -7.73132 28.9584 59.0096
lradius 52.8434
lwrist -21.889
lhand -32.8917 -4.04474
lfingers 7.12502
lthumb -6.10966 25.8472
rfemur -36.1103 4.57717 13.9868
rtibia 24.4383
rfoot 5.17988 4.30542
rtoes -4.6921
lfemur 7.48077 -14.723 -20.7029
ltibia 25.7116
lfoot -1.21137 -25.7778
ltoes 15.265
